# xmcd CD database file
#
# Track frame offsets:
#	150
#	23692
#	28279
#	58175
#	85767
#	93530
#	119591
#	126029
#	147667
#	158416
#	197504
#	211685
#	244525
#	264509
#	292032
#	335136
#	338083
#
# Disc length: 4696 seconds
#
# Revision: 0
# Processed by: cddbd v1.5.1PL0 Copyright (c) Steve Scherf et al.
# Submitted via: CDex 1.51
#
DISCID=fa125611
DTITLE=Champion Jack Dupree - Live In Manchester, May 66
DYEAR=1966
DGENRE=Blues
TTITLE0=Going Down To The Bottom
TTITLE1=Jack Talks
TTITLE2=Don't Mistreat Your Woman
TTITLE3=Gimme A Vigfoot And A Bottle Of Beer
TTITLE4=Talks
TTITLE5=The Sheik Of Araby
TTITLE6=Talks
TTITLE7=Inconnu Tax
TTITLE8=Talks
TTITLE9=Drinkin' Wire spo-der-oder
TTITLE10=Talks
TTITLE11=Please send Me Someone To Love
TTITLE12=Walking The Blues
TTITLE13=How Lorry Blues
TTITLE14=We're Gonna Rock n'roll
TTITLE15=Talks
TTITLE16=Until We Meet Again
EXTD=YEAR: 1966
EXTT0=
EXTT1=
EXTT2=
EXTT3=
EXTT4=
EXTT5=
EXTT6=
EXTT7=
EXTT8=
EXTT9=
EXTT10=
EXTT11=
EXTT12=
EXTT13=
EXTT14=
EXTT15=
EXTT16=
PLAYORDER=
